General
Complete name : Heat.1995.BRRip.H264.AAC.5.1ch.Gopo.mp4
Format : MPEG-4
Format profile : Base Media
Codec ID : isom
File size : 1.37 GiB
Duration : 2h 50mn
Overall bit rate : 1 148 Kbps
Encoded date : UTC 2009-11-11 22:33:40
Tagged date : UTC 2009-11-11 22:33:40
Video #1
ID : 1
Format : AVC
Format/Info : Advanced Video Codec
Format profile : High@L4.1
Format settings, CABAC : Yes
Format settings, ReFrames : 4 frames
Codec ID : avc1
Codec ID/Info : Advanced Video Coding
Duration : 2h 50mn
Bit rate mode : Variable
Bit rate : 842 Kbps
Maximum bit rate : 2 083 Kbps
Width : 1 280 pixels
Height : 536 pixels
Display aspect ratio : 2.35:1
Frame rate mode : Constant
Frame rate : 23.976 fps
Resolution : 24 bits
Colorimetry : 4:2:0
Scan type : Progressive
Bits/(Pixel*Frame) : 0.051
Stream size : 1.00 GiB (73%)
Writing library : x264 core 68 r1183M f21daff
Encoding settings : cabac=1 / ref=4 / deblock=1:-1:-1 / analyse=0x3:0x113 / me=umh / subme=8 / psy_rd=1.0:0.0 / mixed_ref=1 / me_range=16 / chroma_me=1 / trellis=2 / 8x8dct=1 / cqm=0 / deadzone=21,11 / chroma_qp_offset=-2 / threads=1 / nr=0 / decimate=1 / mbaff=0 / bframes=3 / b_pyramid=0 / b_adapt=2 / b_bias=0 / direct=3 / wpredb=1 / keyint=250 / keyint_min=25 / scenecut=40 / rc=2pass / bitrate=842 / ratetol=1.0 / qcomp=0.60 / qpmin=10 / qpmax=51 / qpstep=4 / cplxblur=20.0 / qblur=0.5 / vbv_maxrate=50000 / vbv_bufsize=50000 / ip_ratio=1.40 / pb_ratio=1.30 / aq=1:1.00
Encoded date : UTC 2009-11-10 16:31:45
Tagged date : UTC 2009-11-11 22:34:49
Audio #2
ID : 2
Format : AAC
Format/Info : Advanced Audio Codec
Format version : Version 4
Format profile : LC
Format settings, SBR : No
Codec ID : 40
Duration : 2h 50mn
Bit rate mode : Variable
Bit rate : 302 Kbps
Maximum bit rate : 405 Kbps
Channel(s) : 6 channels
Channel positions : Front: L C R, Rear: L R, LFE
Sampling rate : 48.0 KHz
Resolution : 16 bits
Stream size : 368 MiB (26%)
Encoded date : UTC 2009-11-11 22:34:32
Tagged date : UTC 2009-11-11 22:34:49
PLOT

Hunters and their prey--Neil and his professional criminal crew hunt to score big money targets (banks, vaults, armored cars) and are, in turn, hunted by Lt. Vincent Hanna and his team of cops in the Robbery/Homicide police division. A botched job puts Hanna onto their trail while they regroup and try to put together one last big 'retirement' score. Neil and Vincent are similar in many ways, including their troubled personal lives. At a crucial moment in his life, Neil disobeys the dictum taught to him long ago by his criminal mentor--'Never have anything in your life that you can't walk out on in thirty seconds flat, if you spot the heat coming around the corner'--as he falls in love. Thus the stage is set for the suspenseful ending....

Director: Michael Mann
CASTING

Al Pacino ... Lt. Vincent Hanna
Robert De Niro ... Neil McCauley
Val Kilmer ... Chris Shiherlis
Jon Voight ... Nate
Tom Sizemore ... Michael Cheritto
Diane Venora ... Justine Hanna
Amy Brenneman ... Eady
Ashley Judd ... Charlene Shiherlis
Mykelti Williamson ... Sergeant Drucker
Wes Studi ... Detective Casals
Ted Levine ... Bosko
Dennis Haysbert ... Donald Breedan
William Fichtner ... Roger Van Zant
Natalie Portman ... Lauren Gustafson
Tom Noonan ... Kelso

SOURCE: Heat.1995.720p.BluRay.x264.HDCLASSiCS

Notes: For best performance I suggest you to use KMPlayer(find it with google) for playback